<svg width="1331" height="271" fill="none" xmlns="http://www.w3.org/2000/svg" preserveAspectRatio="none"><path fill-rule="evenodd" clip-rule="evenodd" d="M137.614 0C61.517 0 0 62.104 0 138.935c0 61.415 39.416 113.402 94.096 131.801 6.837 1.384 9.341-2.989 9.341-6.667 0-3.221-.225-14.262-.225-25.765-38.281 8.282-46.253-16.562-46.253-16.562-6.152-16.102-15.267-20.24-15.267-20.24-12.53-8.511.913-8.511.913-8.511 13.898.92 21.19 14.261 21.19 14.261 12.302 21.161 32.124 15.182 40.098 11.501 1.138-8.972 4.786-15.182 8.659-18.632-30.531-3.221-62.655-15.181-62.655-68.548 0-15.182 5.465-27.603 14.124-37.263-1.366-3.45-6.152-17.713 1.37-36.805 0 0 11.618-3.68 37.818 14.262a132.042 132.042 0 0134.405-4.602c11.619 0 23.464 1.612 34.402 4.602 26.202-17.943 37.821-14.262 37.821-14.262 7.521 19.092 2.733 33.356 1.367 36.805 8.887 9.66 14.126 22.081 14.126 37.263 0 53.367-32.123 65.096-62.883 68.548 5.014 4.37 9.341 12.65 9.341 25.762 0 18.631-.226 33.584-.226 38.183 0 3.681 2.507 8.054 9.341 6.673 54.68-18.405 94.096-70.389 94.096-131.804C275.225 62.104 213.482 0 137.614 0z" fill="#054731"/><path d="M526.979 14.702c-44.279 6.042-69.493 32.564-78.615 82.843-2.973 16.384-3.178 55.808-.41 71.169 7.892 43.111 29.314 68.609 65.393 77.825 32.389 8.192 71.134 4.915 97.373-8.295 9.942-4.915 9.02 1.741 9.02-63.386 0-43.316-.308-57.755-1.23-58.676-.923-.922-11.07-1.229-39.359-1.229-33.312 0-38.437.205-39.769 1.638-1.333 1.332-1.64 4.608-1.64 20.276 0 13.107.41 19.046 1.23 19.866.82.819 5.944 1.228 16.399 1.228h15.17v45.057l-2.768.717c-1.64.512-10.249.819-19.269.819-14.657-.102-17.015-.307-22.345-2.457-12.914-5.121-23.267-18.842-27.367-36.455-4.099-17.101-4.407-46.9-.615-63.182 7.073-30.413 24.087-42.804 58.732-42.804 13.529 0 21.217 1.024 34.439 4.301 6.765 1.74 9.225 2.048 9.737 1.126.41-.716 2.768-9.625 5.228-19.968l4.407-18.637-2.255-1.843c-3.075-2.458-16.707-6.656-27.982-8.602-11.377-1.843-43.561-2.765-53.504-1.331zm311.283 8.294c-1.743 1.741-1.743 221.085 0 222.826 1.742 1.741 43.971 1.741 45.714 0 .922-.922 1.23-13.108 1.23-48.641v-47.412h65.598v47.617c0 45.978.103 47.617 1.948 48.641 1.23.614 10.455 1.024 23.062 1.024 17.732 0 21.217-.205 22.549-1.639 1.435-1.433 1.637-12.902 1.637-111.003 0-98.1-.202-109.57-1.637-111.003-1.332-1.434-4.817-1.639-22.549-1.639-12.607 0-21.832.41-23.062 1.024-1.845 1.024-1.948 2.56-1.948 41.985v40.961h-65.598V64.981c0-30.311-.308-41.063-1.23-41.985-1.743-1.74-43.972-1.74-45.714 0zm346.858.41c-1.44 1.433-1.64 12.902-1.64 111.003 0 98.1.2 109.569 1.64 111.003 1.33 1.331 4.3 1.638 16.81 1.638 16.7 0 18.45-.614 18.45-5.939 0-1.536.41-3.482 1.02-4.301.82-1.229 1.13-1.229 2.77.205 1.02.922 5.23 3.379 9.33 5.427 19.67 9.831 47.76 11.162 65.49 3.175 20.5-9.421 30.14-31.233 31.78-71.784 1.84-48.538-12.71-77.108-42.54-83.354-14.45-2.97-34.85-.717-48.79 5.427-3.28 1.433-6.15 2.662-6.35 2.662-.21 0-.41-16.794-.41-37.376 0-35.84-.11-37.377-1.95-38.4-1.23-.615-10.46-1.025-23.06-1.025-17.74 0-21.22.205-22.55 1.639zm84.25 107.828c9.43 4.813 12.91 15.156 13.02 38.503 0 32.462-5.23 41.473-24.09 41.473-8.2 0-19.58-2.663-23.98-5.53l-2.67-1.638V135.33l4.92-2.048c12.4-5.325 24.8-6.144 32.8-2.048zM662.276 27.912c-12.402 3.174-19.782 11.776-20.807 24.064-.615 8.09 1.435 14.336 6.765 20.173 16.604 18.432 46.636 6.656 46.534-18.125 0-4.71-.718-8.09-2.255-11.162-5.433-11.366-18.757-17.92-30.237-14.95zm72.57 22.324c-.923.614-1.333 6.758-1.538 22.63l-.307 21.914-11.582 2.765c-6.458 1.536-12.095 3.277-12.608 3.789-.512.512-.82 7.578-.717 16.282l.307 15.258 12.3.512 12.3.512.512 40.448c.615 42.804.615 43.521 5.843 53.659 4.817 9.318 16.707 17.613 29.724 20.685 12.915 2.969 41.102 1.331 46.021-2.765 1.948-1.536 2.05-33.178.205-34.305-.717-.409-5.022-.716-9.634-.512-15.17.41-22.037-3.072-23.985-12.493-.615-3.276-.922-16.589-.82-35.021l.308-29.696 16.399-.308c13.94-.204 16.605-.512 17.732-1.945 1.538-2.151 1.743-33.28.205-36.25-1.025-1.843-2.357-1.946-17.937-1.946h-16.912V72.047c0-18.534-.205-21.504-1.64-22.016-2.357-.922-42.741-.717-44.176.205zm-90.302 44.442c-.922.921-1.23 19.046-1.23 75.162 0 67.483.103 74.037 1.743 75.265 1.23 1.127 6.457 1.434 23.062 1.434 20.089 0 21.627-.102 22.959-1.946 1.23-1.74 1.435-13.619 1.435-75.367 0-55.706-.307-73.627-1.23-74.548-1.742-1.741-44.996-1.741-46.739 0zm377.196-.308c-1.03.614-1.23 12.493-1.03 60.622l.31 59.802 2.66 6.963c5.95 15.053 14.25 22.426 30.75 26.932 4.92 1.434 10.35 1.843 21.94 1.843 13.73-.102 16.29-.307 24.6-2.867 5.12-1.536 12.91-4.506 17.42-6.759 4.51-2.15 8.51-3.686 8.92-3.379.51.205.82 1.741.82 3.379 0 5.53 1.74 6.145 17.32 6.145 9.53 0 14.45-.41 15.27-1.229.92-.922 1.23-19.252 1.23-76.187 0-67.38-.2-74.958-1.64-75.572-3.18-1.229-43.97-.717-45.3.614-.92.922-1.23 14.644-1.23 55.399v54.068l-6.87 3.277c-6.35 2.97-7.79 3.277-17.42 3.277-8.92 0-10.77-.307-13.33-2.15-6.56-4.813-6.46-3.789-6.46-60.52 0-45.363-.2-51.508-1.64-52.941-1.33-1.434-4.92-1.639-23.26-1.639-12 0-22.35.41-23.06.922z" fill="#054731"/></svg>