<svg width="1331" height="271" viewBox="0 0 1331 271" fill="none" xmlns="http://www.w3.org/2000/svg">
<path fill-rule="evenodd" clip-rule="evenodd" d="M137.614 0C61.5169 0 0 62.1039 0 138.935C0 200.35 39.416 252.337 94.0964 270.736C100.933 272.12 103.437 267.747 103.437 264.069C103.437 260.848 103.212 249.807 103.212 238.304C64.9309 246.586 56.9593 221.742 56.9593 221.742C50.8073 205.64 41.692 201.502 41.692 201.502C29.1627 192.991 42.6047 192.991 42.6047 192.991C56.5029 193.911 63.7957 207.252 63.7957 207.252C76.0969 228.413 95.9189 222.434 103.893 218.753C105.031 209.781 108.679 203.571 112.552 200.121C82.0207 196.9 49.8975 184.94 49.8975 131.573C49.8975 116.391 55.3621 103.97 64.0211 94.3104C62.6549 90.8608 57.8691 76.5967 65.3901 57.5054C65.3901 57.5054 77.0095 53.8243 103.209 71.7667C114.426 68.7255 125.994 67.1784 137.614 67.1654C149.233 67.1654 161.078 68.7773 172.016 71.7667C198.218 53.8243 209.837 57.5054 209.837 57.5054C217.358 76.5967 212.57 90.8608 211.204 94.3104C220.091 103.97 225.33 116.391 225.33 131.573C225.33 184.94 193.207 196.669 162.447 200.121C167.461 204.491 171.788 212.771 171.788 225.883C171.788 244.514 171.562 259.467 171.562 264.066C171.562 267.747 174.069 272.12 180.903 270.739C235.583 252.334 274.999 200.35 274.999 138.935C275.225 62.1039 213.482 0 137.614 0Z" fill="#054731"/>
<path d="M526.979 14.7019C482.7 20.7435 457.486 47.2655 448.364 97.5446C445.391 113.929 445.186 153.353 447.954 168.714C455.846 211.825 477.268 237.323 513.347 246.539C545.736 254.731 584.481 251.454 610.72 238.244C620.662 233.329 619.74 239.985 619.74 174.858C619.74 131.542 619.432 117.103 618.51 116.182C617.587 115.26 607.44 114.953 579.151 114.953C545.839 114.953 540.714 115.158 539.382 116.591C538.049 117.923 537.742 121.199 537.742 136.867C537.742 149.974 538.152 155.913 538.972 156.733C539.792 157.552 544.916 157.961 555.371 157.961H570.541V180.49V203.018L567.773 203.735C566.133 204.247 557.524 204.554 548.504 204.554C533.847 204.452 531.489 204.247 526.159 202.097C513.245 196.976 502.892 183.255 498.792 165.642C494.693 148.541 494.385 118.742 498.177 102.46C505.25 72.0467 522.264 59.6561 556.909 59.6561C570.438 59.6561 578.126 60.6801 591.348 63.957C598.113 65.6978 600.573 66.005 601.085 65.0834C601.495 64.3666 603.853 55.4576 606.313 45.1151L610.72 26.478L608.465 24.6348C605.39 22.1772 591.758 17.9787 580.483 16.0331C569.106 14.1899 536.922 13.2682 526.979 14.7019Z" fill="#054731"/>
<path d="M838.262 22.9963C836.519 24.7371 836.519 244.081 838.262 245.822C840.004 247.563 882.233 247.563 883.976 245.822C884.898 244.9 885.206 232.714 885.206 197.181V149.769H918.005H950.804V197.386C950.804 243.364 950.907 245.003 952.752 246.027C953.982 246.641 963.207 247.051 975.814 247.051C993.546 247.051 997.031 246.846 998.363 245.412C999.798 243.979 1000 232.51 1000 134.409C1000 36.3085 999.798 24.8395 998.363 23.4059C997.031 21.9723 993.546 21.7674 975.814 21.7674C963.207 21.7674 953.982 22.1771 952.752 22.7915C950.907 23.8155 950.804 25.3515 950.804 64.7761V105.737H918.005H885.206V64.9809C885.206 34.67 884.898 23.9179 883.976 22.9963C882.233 21.2554 840.004 21.2554 838.262 22.9963Z" fill="#054731"/>
<path d="M1185.12 23.4056C1183.68 24.8392 1183.48 36.3082 1183.48 134.409C1183.48 232.509 1183.68 243.978 1185.12 245.412C1186.45 246.743 1189.42 247.05 1201.93 247.05C1218.63 247.05 1220.38 246.436 1220.38 241.111C1220.38 239.575 1220.79 237.629 1221.4 236.81C1222.22 235.581 1222.53 235.581 1224.17 237.015C1225.19 237.937 1229.4 240.394 1233.5 242.442C1253.17 252.273 1281.26 253.604 1298.99 245.617C1319.49 236.196 1329.13 214.384 1330.77 173.833C1332.61 125.295 1318.06 96.725 1288.23 90.4786C1273.78 87.5089 1253.38 89.7617 1239.44 95.9058C1236.16 97.3395 1233.29 98.5683 1233.09 98.5683C1232.88 98.5683 1232.68 81.7744 1232.68 61.1917C1232.68 25.3512 1232.57 23.8152 1230.73 22.7912C1229.5 22.1768 1220.27 21.7672 1207.67 21.7672C1189.93 21.7672 1186.45 21.972 1185.12 23.4056ZM1269.37 131.234C1278.8 136.047 1282.28 146.39 1282.39 169.737C1282.39 202.199 1277.16 211.21 1258.3 211.21C1250.1 211.21 1238.72 208.547 1234.32 205.68L1231.65 204.042V169.635V135.33L1236.57 133.282C1248.97 127.957 1261.37 127.138 1269.37 131.234Z" fill="#054731"/>
<path d="M662.276 27.9117C649.874 31.0862 642.494 39.6879 641.469 51.9761C640.854 60.0658 642.904 66.3123 648.234 72.1492C664.838 90.5814 694.87 78.8052 694.768 54.0241C694.768 49.3136 694.05 45.9344 692.513 42.8623C687.08 31.4958 673.756 24.9421 662.276 27.9117Z" fill="#054731"/>
<path d="M734.846 50.2356C733.923 50.8501 733.513 56.9941 733.308 72.8664L733.001 94.7803L721.419 97.5451C714.961 99.0811 709.324 100.822 708.811 101.334C708.299 101.846 707.991 108.912 708.094 117.616L708.401 132.874L720.701 133.386L733.001 133.898L733.513 174.346C734.128 217.15 734.128 217.867 739.356 228.005C744.173 237.323 756.063 245.618 769.08 248.69C781.995 251.659 810.182 250.021 815.101 245.925C817.049 244.389 817.151 212.747 815.306 211.62C814.589 211.211 810.284 210.904 805.672 211.108C790.502 211.518 783.635 208.036 781.687 198.615C781.072 195.339 780.765 182.026 780.867 163.594L781.175 133.898L797.574 133.59C811.514 133.386 814.179 133.078 815.306 131.645C816.844 129.494 817.049 98.3643 815.511 95.3947C814.486 93.5515 813.154 93.4491 797.574 93.4491H780.662V72.0472C780.662 53.5125 780.457 50.5429 779.022 50.0308C776.665 49.1092 736.281 49.314 734.846 50.2356Z" fill="#054731"/>
<path d="M644.544 94.6777C643.622 95.5993 643.314 113.724 643.314 169.84C643.314 237.323 643.417 243.877 645.057 245.105C646.287 246.232 651.514 246.539 668.119 246.539C688.208 246.539 689.746 246.437 691.078 244.593C692.308 242.853 692.513 230.974 692.513 169.226C692.513 113.52 692.206 95.5993 691.283 94.6777C689.541 92.9369 646.287 92.9369 644.544 94.6777Z" fill="#054731"/>
<path d="M1021.74 94.37C1020.71 94.9844 1020.51 106.863 1020.71 154.992L1021.02 214.794L1023.68 221.757C1029.63 236.81 1037.93 244.183 1054.43 248.689C1059.35 250.123 1064.78 250.532 1076.37 250.532C1090.1 250.43 1092.66 250.225 1100.97 247.665C1106.09 246.129 1113.88 243.159 1118.39 240.906C1122.9 238.756 1126.9 237.22 1127.31 237.527C1127.82 237.732 1128.13 239.268 1128.13 240.906C1128.13 246.436 1129.87 247.051 1145.45 247.051C1154.98 247.051 1159.9 246.641 1160.72 245.822C1161.64 244.9 1161.95 226.57 1161.95 169.635C1161.95 102.255 1161.75 94.6772 1160.31 94.0628C1157.13 92.834 1116.34 93.346 1115.01 94.6772C1114.09 95.5988 1113.78 109.321 1113.78 150.076V204.144L1106.91 207.421C1100.56 210.391 1099.12 210.698 1089.49 210.698C1080.57 210.698 1078.72 210.391 1076.16 208.548C1069.6 203.735 1069.7 204.759 1069.7 148.028C1069.7 102.665 1069.5 96.5204 1068.06 95.0868C1066.73 93.6532 1063.14 93.4484 1044.8 93.4484C1032.8 93.4484 1022.45 93.858 1021.74 94.37Z" fill="#054731"/>
</svg>
